<svg xmlns="http://www.w3.org/2000/svg" viewBox="0 0 206.31 60.01"><defs><style>.cls-1{fill:#1f9967;}.cls-2{fill:#25ba81;}</style></defs><title>Asset 1</title><g id="Layer_2" data-name="Layer 2"><g id="Logo"><path d="M78.49,21.83V46.07h-5.9v-32h8.06L92.79,38.39V14.1h5.9v32H90.63Z"/><path d="M113.09,46.55c-8,0-10.18-4.42-10.18-9.22V31.43c0-4.8,2.16-9.22,10.18-9.22s10.18,4.42,10.18,9.22v5.91C123.27,42.13,121.11,46.55,113.09,46.55Zm0-19.35c-3.12,0-4.32,1.39-4.32,4v6.29c0,2.64,1.2,4,4.32,4s4.32-1.39,4.32-4V31.24C117.41,28.6,116.21,27.2,113.09,27.2Z"/><path d="M141.08,46.07V29.75c0-1.25-.53-1.87-1.87-1.87a16.16,16.16,0,0,0-6.1,2V46.07h-5.86V22.69h4.46l.58,2a23.43,23.43,0,0,1,9.36-2.45,4.44,4.44,0,0,1,4.42,2.5,23,23,0,0,1,9.41-2.5c3.89,0,5.28,2.74,5.28,6.91V46.07H154.9V29.75c0-1.25-.53-1.87-1.87-1.87a15.5,15.5,0,0,0-6.1,2V46.07Z"/><path d="M182.89,46.07h-4.8l-.43-1.58a12.79,12.79,0,0,1-7,2.06c-4.27,0-6.1-2.93-6.1-7,0-4.75,2.06-6.58,6.82-6.58H177V30.56c0-2.59-.72-3.5-4.46-3.5a32.71,32.71,0,0,0-6.48.72l-.72-4.46a30.52,30.52,0,0,1,8-1.1c7.34,0,9.5,2.59,9.5,8.45ZM177,37.24h-4.32c-1.92,0-2.45.53-2.45,2.3s.53,2.35,2.35,2.35a9.2,9.2,0,0,0,4.42-1.2Z"/><path d="M186.48,30.47c0-5.18,2.3-8.26,7.73-8.26a32.22,32.22,0,0,1,6.24.67V13.14l5.86-.82V46.07h-4.66l-.58-2a12.31,12.31,0,0,1-7.39,2.45c-4.7,0-7.2-2.79-7.2-8.11Zm14-2.64a26,26,0,0,0-5.18-.62c-2.11,0-2.93,1-2.93,3.12v8.26c0,1.92.72,3,2.88,3a8.28,8.28,0,0,0,5.23-2.11Z"/><path d="M77,7.86V4.63h-3V7.86H72.58V.11h1.51V3.36h3V.11h1.51V7.86Zm7,0h-1.2l-.11-.38A3.28,3.28,0,0,1,81,8c-1.06,0-1.52-.7-1.52-1.66,0-1.14.51-1.57,1.7-1.57h1.4V4.15c0-.62-.18-.84-1.11-.84a8.46,8.46,0,0,0-1.61.17l-.18-1.07a7.89,7.89,0,0,1,2-.26c1.83,0,2.37.62,2.37,2ZM82.61,5.75H81.54c-.48,0-.61.13-.61.55s.13.56.59.56a2.37,2.37,0,0,0,1.1-.29ZM87.13,8a7.12,7.12,0,0,1-2-.32l.2-1.07a6.77,6.77,0,0,0,1.73.24c.65,0,.74-.14.74-.56s-.07-.52-1-.73c-1.42-.33-1.59-.68-1.59-1.76s.51-1.62,2.18-1.62a8,8,0,0,1,1.75.2L89,3.46a10.66,10.66,0,0,0-1.6-.16c-.63,0-.74.14-.74.48s0,.48.82.68c1.63.41,1.78.62,1.78,1.77S88.88,8,87.13,8Zm6.68-.11V4c0-.3-.13-.45-.47-.45A4.14,4.14,0,0,0,91.82,4V7.86H90.36V0l1.46.22V2.69a5.31,5.31,0,0,1,2.13-.54c1,0,1.32.65,1.32,1.65V7.86Zm2.68-6.38V.11h1.46V1.48Zm0,6.38V2.27h1.46V7.86Zm2.62-5.54c0-1.4.85-2.22,2.83-2.22a9.37,9.37,0,0,1,2.16.25l-.17,1.25a12.21,12.21,0,0,0-1.95-.2c-1,0-1.37.34-1.37,1.16V5.5c0,.81.33,1.16,1.37,1.16a12.21,12.21,0,0,0,1.95-.2l.17,1.25a9.37,9.37,0,0,1-2.16.25c-2,0-2.83-.81-2.83-2.22ZM107.33,8c-2,0-2.53-1.06-2.53-2.2V4.36c0-1.15.54-2.2,2.53-2.2s2.53,1.06,2.53,2.2V5.77C109.86,6.92,109.32,8,107.33,8Zm0-4.63c-.78,0-1.08.33-1.08,1v1.5c0,.63.3,1,1.08,1s1.08-.33,1.08-1V4.31C108.4,3.68,108.11,3.35,107.33,3.35Zm6.64.09a11.57,11.57,0,0,0-1.54.81v3.6H111V2.27h1.23l.1.62a6.63,6.63,0,0,1,1.53-.73ZM119.8,6a1.73,1.73,0,0,1-1.92,2,8.36,8.36,0,0,1-1.55-.16V10.1l-1.46.22v-8H116l.14.47A3.15,3.15,0,0,1,118,2.15c1.17,0,1.79.67,1.79,1.94Zm-3.48.63a6.72,6.72,0,0,0,1.29.15c.53,0,.73-.24.73-.75v-2c0-.46-.18-.71-.72-.71a2.11,2.11,0,0,0-1.3.51Z"/><polygon class="cls-1" points="38.02 23.07 38.02 33.02 31.09 37.03 26.25 34.03 26.25 60.01 26.39 60.01 52.5 45.01 52.5 15.05 52.01 15.04 38.02 23.07"/><polygon class="cls-2" points="26.03 0.01 0 15.05 17.56 25.37 21.12 23.2 29.75 28.02 29.75 18.02 38.02 13.05 38.02 23.07 52.5 15.05 52.5 15.01 26.03 0.01"/><polygon class="cls-2" points="22.75 32.03 22.75 42.02 14.87 47.02 14.87 27.02 17.86 25.19 0.15 15.05 0 15.05 0 45.01 26.25 60.01 26.25 34.03 22.75 32.03"/></g></g></svg>